# xmcd
#
# Track frame offsets:
#	150
#	19391
#	37697
#	57189
#	71645
#	92079
#	109798
#	126819
#	146532
#	164723
#	186509
#
# Disc length: 2678 seconds
#
# Revision: 0
# Processed by: cddbd v1.4PL0 Copyright (c) Steve Scherf et al.
# Submitted via: dBpowerAMP V4.0
#
DISCID=9c0a740b
DTITLE=Southside Johnny and The Jukes - At Least We Got Shoes
DYEAR=1900
DGENRE=Blues
TTITLE0=Hard To Find
TTITLE1=Tell Me (That Our Love's Still Strong)
TTITLE2=Walk Away Renee
TTITLE3=Take My Love
TTITLE4=You Can Count On Me
TTITLE5=Till The End Of The Night
TTITLE6=I Only Want To Be With You
TTITLE7=Lorraine
TTITLE8=I Can't Wait
TTITLE9=Under The Sun
TTITLE10=Extra Track
EXTD=
EXTT0=
EXTT1=
EXTT2=
EXTT3=
EXTT4=
EXTT5=
EXTT6=
EXTT7=
EXTT8=
EXTT9=
EXTT10=
PLAYORDER=
